<mxfile host="app.diagrams.net" modified="2023-04-16T02:46:22.422Z" agent="Mozilla/5.0 (Windows NT 10.0; Win64; x64) AppleWebKit/537.36 (KHTML, like Gecko) Chrome/111.0.0.0 Safari/537.36" etag="jKxeDWOb-7g7Jf08WEu0" version="21.1.8" type="github">
  <diagram id="kgpKYQtTHZ0yAKxKKP6v" name="Page-1">
    <mxGraphModel dx="794" dy="1481" grid="1" gridSize="10" guides="1" tooltips="1" connect="1" arrows="1" fold="1" page="1" pageScale="1" pageWidth="850" pageHeight="1100" math="0" shadow="0">
      <root>
        <mxCell id="0" />
        <mxCell id="1" parent="0" />
        <mxCell id="3nuBFxr9cyL0pnOWT2aG-1" value="CAS Life Sciences Data Ingestion Process" style="shape=table;childLayout=tableLayout;startSize=40;collapsible=0;recursiveResize=0;expand=0;fillColor=none;fontStyle=1" parent="1" vertex="1">
          <mxGeometry x="100" y="70" width="670" height="890" as="geometry" />
        </mxCell>
        <mxCell id="T6XuYBtYMx8qg3Nv54xp-66" value="Content Operations" style="shape=tableRow;horizontal=0;swimlaneHead=0;swimlaneBody=0;top=0;left=0;bottom=0;right=0;fillColor=none;points=[[0,0.5],[1,0.5]];portConstraint=eastwest;startSize=40;collapsible=0;recursiveResize=0;expand=0;fontStyle=1;swimlaneLine=1;" vertex="1" parent="3nuBFxr9cyL0pnOWT2aG-1">
          <mxGeometry y="40" width="670" height="170" as="geometry" />
        </mxCell>
        <mxCell id="T6XuYBtYMx8qg3Nv54xp-67" value="" style="swimlane;swimlaneHead=0;swimlaneBody=0;connectable=0;fillColor=none;startSize=0;collapsible=0;recursiveResize=0;expand=0;fontStyle=1;" vertex="1" parent="T6XuYBtYMx8qg3Nv54xp-66">
          <mxGeometry x="40" width="220" height="170" as="geometry">
            <mxRectangle width="220" height="170" as="alternateBounds" />
          </mxGeometry>
        </mxCell>
        <mxCell id="T6XuYBtYMx8qg3Nv54xp-68" value="" style="swimlane;swimlaneHead=0;swimlaneBody=0;connectable=0;fillColor=none;startSize=0;collapsible=0;recursiveResize=0;expand=0;fontStyle=1;strokeColor=default;swimlaneLine=0;" vertex="1" parent="T6XuYBtYMx8qg3Nv54xp-66">
          <mxGeometry x="260" width="250" height="170" as="geometry">
            <mxRectangle width="250" height="170" as="alternateBounds" />
          </mxGeometry>
        </mxCell>
        <mxCell id="T6XuYBtYMx8qg3Nv54xp-74" value="" style="whiteSpace=wrap;html=1;strokeWidth=2;" vertex="1" parent="T6XuYBtYMx8qg3Nv54xp-68">
          <mxGeometry x="80" y="50" width="120" height="60" as="geometry" />
        </mxCell>
        <mxCell id="T6XuYBtYMx8qg3Nv54xp-69" value="" style="swimlane;swimlaneHead=0;swimlaneBody=0;connectable=0;fillColor=none;startSize=0;collapsible=0;recursiveResize=0;expand=0;fontStyle=1;" vertex="1" parent="T6XuYBtYMx8qg3Nv54xp-66">
          <mxGeometry x="510" width="160" height="170" as="geometry">
            <mxRectangle width="160" height="170" as="alternateBounds" />
          </mxGeometry>
        </mxCell>
        <mxCell id="3nuBFxr9cyL0pnOWT2aG-15" value="Data Governance (Product)" style="shape=tableRow;horizontal=0;swimlaneHead=0;swimlaneBody=0;top=0;left=0;bottom=0;right=0;fillColor=none;points=[[0,0.5],[1,0.5]];portConstraint=eastwest;startSize=40;collapsible=0;recursiveResize=0;expand=0;fontStyle=1;" parent="3nuBFxr9cyL0pnOWT2aG-1" vertex="1">
          <mxGeometry y="210" width="670" height="170" as="geometry" />
        </mxCell>
        <mxCell id="3nuBFxr9cyL0pnOWT2aG-16" value="" style="swimlane;swimlaneHead=0;swimlaneBody=0;connectable=0;fillColor=none;startSize=0;collapsible=0;recursiveResize=0;expand=0;fontStyle=1;" parent="3nuBFxr9cyL0pnOWT2aG-15" vertex="1">
          <mxGeometry x="40" width="220" height="170" as="geometry">
            <mxRectangle width="220" height="170" as="alternateBounds" />
          </mxGeometry>
        </mxCell>
        <mxCell id="3nuBFxr9cyL0pnOWT2aG-18" value="" style="swimlane;swimlaneHead=0;swimlaneBody=0;connectable=0;fillColor=none;startSize=0;collapsible=0;recursiveResize=0;expand=0;fontStyle=1;swimlaneLine=0;" parent="3nuBFxr9cyL0pnOWT2aG-15" vertex="1">
          <mxGeometry x="260" width="250" height="170" as="geometry">
            <mxRectangle width="250" height="170" as="alternateBounds" />
          </mxGeometry>
        </mxCell>
        <mxCell id="3nuBFxr9cyL0pnOWT2aG-23" value="" style="swimlane;swimlaneHead=0;swimlaneBody=0;connectable=0;fillColor=none;startSize=0;collapsible=0;recursiveResize=0;expand=0;fontStyle=1;" parent="3nuBFxr9cyL0pnOWT2aG-15" vertex="1">
          <mxGeometry x="510" width="160" height="170" as="geometry">
            <mxRectangle width="160" height="170" as="alternateBounds" />
          </mxGeometry>
        </mxCell>
        <mxCell id="T6XuYBtYMx8qg3Nv54xp-62" value="Data Governance (Product)" style="shape=tableRow;horizontal=0;swimlaneHead=0;swimlaneBody=0;top=0;left=0;bottom=0;right=0;fillColor=none;points=[[0,0.5],[1,0.5]];portConstraint=eastwest;startSize=40;collapsible=0;recursiveResize=0;expand=0;fontStyle=1;" vertex="1" parent="3nuBFxr9cyL0pnOWT2aG-1">
          <mxGeometry y="380" width="670" height="170" as="geometry" />
        </mxCell>
        <mxCell id="T6XuYBtYMx8qg3Nv54xp-63" value="" style="swimlane;swimlaneHead=0;swimlaneBody=0;connectable=0;fillColor=none;startSize=0;collapsible=0;recursiveResize=0;expand=0;fontStyle=1;" vertex="1" parent="T6XuYBtYMx8qg3Nv54xp-62">
          <mxGeometry x="40" width="220" height="170" as="geometry">
            <mxRectangle width="220" height="170" as="alternateBounds" />
          </mxGeometry>
        </mxCell>
        <mxCell id="T6XuYBtYMx8qg3Nv54xp-64" value="" style="swimlane;swimlaneHead=0;swimlaneBody=0;connectable=0;fillColor=none;startSize=0;collapsible=0;recursiveResize=0;expand=0;fontStyle=1;swimlaneLine=0;" vertex="1" parent="T6XuYBtYMx8qg3Nv54xp-62">
          <mxGeometry x="260" width="250" height="170" as="geometry">
            <mxRectangle width="250" height="170" as="alternateBounds" />
          </mxGeometry>
        </mxCell>
        <mxCell id="T6XuYBtYMx8qg3Nv54xp-65" value="" style="swimlane;swimlaneHead=0;swimlaneBody=0;connectable=0;fillColor=none;startSize=0;collapsible=0;recursiveResize=0;expand=0;fontStyle=1;" vertex="1" parent="T6XuYBtYMx8qg3Nv54xp-62">
          <mxGeometry x="510" width="160" height="170" as="geometry">
            <mxRectangle width="160" height="170" as="alternateBounds" />
          </mxGeometry>
        </mxCell>
        <mxCell id="T6XuYBtYMx8qg3Nv54xp-1" value="Technology Team" style="shape=tableRow;horizontal=0;swimlaneHead=0;swimlaneBody=0;top=0;left=0;bottom=0;right=0;fillColor=none;points=[[0,0.5],[1,0.5]];portConstraint=eastwest;startSize=40;collapsible=0;recursiveResize=0;expand=0;fontStyle=1;" vertex="1" parent="3nuBFxr9cyL0pnOWT2aG-1">
          <mxGeometry y="550" width="670" height="170" as="geometry" />
        </mxCell>
        <mxCell id="T6XuYBtYMx8qg3Nv54xp-2" value="" style="swimlane;swimlaneHead=0;swimlaneBody=0;connectable=0;fillColor=none;startSize=0;collapsible=0;recursiveResize=0;expand=0;fontStyle=1;" vertex="1" parent="T6XuYBtYMx8qg3Nv54xp-1">
          <mxGeometry x="40" width="220" height="170" as="geometry">
            <mxRectangle width="220" height="170" as="alternateBounds" />
          </mxGeometry>
        </mxCell>
        <mxCell id="T6XuYBtYMx8qg3Nv54xp-4" value="" style="swimlane;swimlaneHead=0;swimlaneBody=0;connectable=0;fillColor=none;startSize=0;collapsible=0;recursiveResize=0;expand=0;fontStyle=1;swimlaneLine=0;" vertex="1" parent="T6XuYBtYMx8qg3Nv54xp-1">
          <mxGeometry x="260" width="250" height="170" as="geometry">
            <mxRectangle width="250" height="170" as="alternateBounds" />
          </mxGeometry>
        </mxCell>
        <mxCell id="T6XuYBtYMx8qg3Nv54xp-9" value="" style="swimlane;swimlaneHead=0;swimlaneBody=0;connectable=0;fillColor=none;startSize=0;collapsible=0;recursiveResize=0;expand=0;fontStyle=1;" vertex="1" parent="T6XuYBtYMx8qg3Nv54xp-1">
          <mxGeometry x="510" width="160" height="170" as="geometry">
            <mxRectangle width="160" height="170" as="alternateBounds" />
          </mxGeometry>
        </mxCell>
        <mxCell id="T6XuYBtYMx8qg3Nv54xp-49" value="Product Team" style="shape=tableRow;horizontal=0;swimlaneHead=0;swimlaneBody=0;top=0;left=0;bottom=0;right=0;fillColor=none;points=[[0,0.5],[1,0.5]];portConstraint=eastwest;startSize=40;collapsible=0;recursiveResize=0;expand=0;fontStyle=1;" vertex="1" parent="3nuBFxr9cyL0pnOWT2aG-1">
          <mxGeometry y="720" width="670" height="170" as="geometry" />
        </mxCell>
        <mxCell id="T6XuYBtYMx8qg3Nv54xp-50" value="" style="swimlane;swimlaneHead=0;swimlaneBody=0;connectable=0;fillColor=none;startSize=0;collapsible=0;recursiveResize=0;expand=0;fontStyle=1;" vertex="1" parent="T6XuYBtYMx8qg3Nv54xp-49">
          <mxGeometry x="40" width="220" height="170" as="geometry">
            <mxRectangle width="220" height="170" as="alternateBounds" />
          </mxGeometry>
        </mxCell>
        <mxCell id="T6XuYBtYMx8qg3Nv54xp-52" value="" style="swimlane;swimlaneHead=0;swimlaneBody=0;connectable=0;fillColor=none;startSize=0;collapsible=0;recursiveResize=0;expand=0;fontStyle=1;swimlaneLine=0;" vertex="1" parent="T6XuYBtYMx8qg3Nv54xp-49">
          <mxGeometry x="260" width="250" height="170" as="geometry">
            <mxRectangle width="250" height="170" as="alternateBounds" />
          </mxGeometry>
        </mxCell>
        <mxCell id="T6XuYBtYMx8qg3Nv54xp-57" value="" style="swimlane;swimlaneHead=0;swimlaneBody=0;connectable=0;fillColor=none;startSize=0;collapsible=0;recursiveResize=0;expand=0;fontStyle=1;" vertex="1" parent="T6XuYBtYMx8qg3Nv54xp-49">
          <mxGeometry x="510" width="160" height="170" as="geometry">
            <mxRectangle width="160" height="170" as="alternateBounds" />
          </mxGeometry>
        </mxCell>
        <mxCell id="T6XuYBtYMx8qg3Nv54xp-72" style="edgeStyle=orthogonalEdgeStyle;rounded=0;orthogonalLoop=1;jettySize=auto;html=1;exitX=0.5;exitY=1;exitDx=0;exitDy=0;exitPerimeter=0;" edge="1" parent="1" source="T6XuYBtYMx8qg3Nv54xp-70" target="T6XuYBtYMx8qg3Nv54xp-73">
          <mxGeometry relative="1" as="geometry">
            <mxPoint x="240" y="190" as="targetPoint" />
          </mxGeometry>
        </mxCell>
        <mxCell id="T6XuYBtYMx8qg3Nv54xp-70" value="&lt;font style=&quot;font-size: 12px;&quot;&gt;Life Science content available at CAS&lt;/font&gt;" style="strokeWidth=2;html=1;shape=mxgraph.flowchart.terminator;whiteSpace=wrap;" vertex="1" parent="1">
          <mxGeometry x="190" width="100" height="60" as="geometry" />
        </mxCell>
        <mxCell id="T6XuYBtYMx8qg3Nv54xp-75" value="Purchased&amp;nbsp;" style="edgeStyle=orthogonalEdgeStyle;rounded=0;orthogonalLoop=1;jettySize=auto;html=1;" edge="1" parent="1" source="T6XuYBtYMx8qg3Nv54xp-73" target="T6XuYBtYMx8qg3Nv54xp-74">
          <mxGeometry relative="1" as="geometry" />
        </mxCell>
        <mxCell id="T6XuYBtYMx8qg3Nv54xp-73" value="Source of data" style="strokeWidth=2;html=1;shape=mxgraph.flowchart.decision;whiteSpace=wrap;" vertex="1" parent="1">
          <mxGeometry x="190" y="140" width="100" height="100" as="geometry" />
        </mxCell>
      </root>
    </mxGraphModel>
  </diagram>
</mxfile>
